<svg id="Layer_1" enable-background="new 0 0 30 30" height="512" viewBox="0 0 30 30" width="512" xmlns="http://www.w3.org/2000/svg"><g><path d="m29.281 7.601c-.405-3.594-3.236-6.434-6.829-6.849-4.942-.641-9.952-.641-14.894-.001-.857.095-1.691.335-2.468.709-.877.43-.24 1.774.651 1.352.624-.301 1.295-.493 1.984-.57 4.832-.627 9.729-.627 14.561 0 2.894.335 5.174 2.622 5.5 5.517.369 3.22.579 6.497.396 9.731h-6.477c-1.539.134-2.866 1.137-3.415 2.581-.596 1.252-1.902 2.007-3.285 1.9-1.38.105-2.682-.65-3.276-1.9-.549-1.444-1.875-2.447-3.414-2.581h-6.487c-.142-3.565-.05-7.228.593-10.746.268-.939-1.179-1.357-1.447-.408-.73 3.9-.821 7.986-.6 11.934.091 1.46.223 2.866.358 4.132.406 3.593 3.237 6.432 6.829 6.847 4.942.64 9.952.64 14.894 0 3.591-.416 6.421-3.255 6.826-6.848.585-4.842.617-9.923 0-14.8zm-1.491 14.641c-.884 6.482-7.819 5.763-12.785 6.009-7.62-.267-13.048.225-13.081-9.261h6.4c.9 0 1.657.9 2.066 1.74.848 1.758 2.666 2.837 4.615 2.741 1.956.102 3.782-.979 4.634-2.742.409-.84 1.167-1.739 2.066-1.739h6.385c-.084 1.115-.19 2.2-.3 3.252z"/><path d="m20.412 8.201c.977-.004.983-1.496 0-1.5h-10.814c-.977.004-.983 1.496 0 1.5z"/><path d="m6.958 12.449c0 .414.336.75.75.75h14.597c.414 0 .75-.336.75-.75s-.336-.75-.75-.75h-14.6c-.413.002-.747.337-.747.75z"/></g></svg>